<svg xmlns="http://www.w3.org/2000/svg" viewBox="0 0 900 380" width="900" height="380"><title>campfire logo — 4-serif-flame-dot</title><path fill="#2A2522" d="M167.49999999999994 247.4Q157.44999999999993 247.4 149.04999999999993 242.9Q140.64999999999992 238.4 135.62499999999994 229.85000000000002Q130.59999999999994 221.3 130.59999999999994 209.15Q130.59999999999994 200.6 133.44999999999993 193.1Q136.29999999999993 185.6 141.4749999999999 179.89999999999998Q146.64999999999992 174.2 153.77499999999992 170.9Q160.89999999999992 167.60000000000002 169.59999999999994 167.60000000000002Q179.19999999999993 167.60000000000002 185.57499999999993 170.525Q191.94999999999993 173.45 195.17499999999993 178.175Q198.39999999999992 182.9 198.39999999999992 188.15Q198.39999999999992 192.5 195.77499999999992 195.875Q193.14999999999992 199.25 188.34999999999994 199.4Q182.64999999999992 199.55 180.39999999999992 196.175Q178.14999999999992 192.8 178.14999999999992 189.65Q178.14999999999992 188.3 178.5999999999999 186.425Q179.04999999999993 184.55 179.94999999999993 183.05Q178.89999999999992 180.8 176.79999999999993 179.75Q174.69999999999993 178.7 172.52499999999992 178.325Q170.34999999999994 177.95 168.99999999999994 178.10000000000002Q161.79999999999993 178.55 157.14999999999992 185.3Q152.49999999999994 192.05 152.49999999999994 204.8Q152.49999999999994 212.3 154.37499999999994 218.825Q156.24999999999994 225.35 160.59999999999994 229.55Q164.94999999999993 233.75 172.29999999999993 234.05Q178.59999999999994 234.2 184.5999999999999 231.05Q190.5999999999999 227.9 194.79999999999993 222.5L201.69999999999993 229.25Q196.29999999999993 236.75 190.44999999999993 240.65Q184.59999999999994 244.55 178.82499999999993 245.97500000000002Q173.04999999999993 247.4 167.49999999999994 247.4ZM251.19999999999993 245.0Q250.89999999999992 242.9 250.82499999999993 241.47500000000002Q250.74999999999994 240.05 250.59999999999994 238.1Q245.49999999999994 243.2 239.79999999999995 245.3Q234.09999999999994 247.4 228.24999999999994 247.4Q218.64999999999995 247.4 213.24999999999994 241.7Q207.84999999999994 236.0 207.84999999999994 227.45Q207.84999999999994 220.25 211.52499999999992 215.15Q215.19999999999993 210.05 221.27499999999992 206.825Q227.34999999999994 203.6 234.77499999999992 201.875Q242.19999999999993 200.15 249.69999999999993 199.85V192.05Q249.69999999999993 188.15 248.72499999999994 185.0Q247.74999999999994 181.85 245.42499999999995 180.05Q243.09999999999994 178.25 238.89999999999992 178.4Q236.04999999999993 178.55 233.34999999999994 179.60000000000002Q230.64999999999995 180.65 228.69999999999993 182.6Q229.89999999999995 183.95 230.19999999999993 185.52499999999998Q230.49999999999994 187.1 230.49999999999994 188.3Q230.49999999999994 191.3 228.09999999999994 194.525Q225.69999999999993 197.75 220.44999999999993 197.6Q215.94999999999993 197.45 213.54999999999995 194.45Q211.14999999999995 191.45 211.14999999999995 187.4Q211.14999999999995 181.4 215.42499999999995 176.97500000000002Q219.69999999999993 172.55 226.89999999999992 170.07500000000002Q234.09999999999994 167.60000000000002 242.79999999999993 167.60000000000002Q255.99999999999994 167.60000000000002 263.275 174.425Q270.54999999999995 181.25 270.54999999999995 196.25Q270.54999999999995 201.35 270.54999999999995 204.95Q270.54999999999995 208.55 270.4749999999999 212.15Q270.3999999999999 215.75 270.3999999999999 220.85Q270.3999999999999 222.95 270.2499999999999 226.77499999999998Q270.0999999999999 230.6 269.79999999999995 234.05Q272.3499999999999 233.75 275.19999999999993 233.675Q278.04999999999995 233.6 279.54999999999995 233.6V245.0ZM249.54999999999993 210.5Q245.34999999999994 210.95 241.59999999999994 212.0Q237.84999999999994 213.05 235.07499999999993 214.85000000000002Q232.29999999999993 216.65 230.72499999999994 219.2Q229.14999999999995 221.75 229.14999999999995 224.9Q229.29999999999993 229.1 231.8499999999999 230.89999999999998Q234.39999999999992 232.7 237.69999999999993 232.7Q241.14999999999992 232.7 244.14999999999992 231.2Q247.14999999999992 229.7 249.54999999999993 227.3Q249.54999999999993 225.8 249.54999999999993 224.375Q249.54999999999993 222.95 249.54999999999993 221.45Q249.54999999999993 218.75 249.54999999999993 215.975Q249.54999999999993 213.2 249.54999999999993 210.5ZM288.0999999999999 245.0V235.25Q292.29999999999995 235.25 294.0999999999999 233.6Q295.8999999999999 231.95 296.42499999999995 228.875Q296.94999999999993 225.8 296.94999999999993 221.9V196.7Q296.94999999999993 194.0 297.0999999999999 190.625Q297.24999999999994 187.25 297.54999999999995 183.95Q295.1499999999999 184.1 291.92499999999995 184.175Q288.69999999999993 184.25 287.04999999999995 184.4V173.0Q293.94999999999993 173.0 298.74999999999994 172.25Q303.54999999999995 171.5 306.32499999999993 170.45Q309.0999999999999 169.4 310.1499999999999 168.5H317.49999999999994Q317.79999999999995 170.0 317.87499999999994 172.25Q317.94999999999993 174.5 318.0999999999999 176.0Q323.19999999999993 172.10000000000002 329.12499999999994 169.85000000000002Q335.04999999999995 167.60000000000002 340.29999999999995 167.60000000000002Q347.19999999999993 167.60000000000002 351.69999999999993 170.07500000000002Q356.19999999999993 172.55 358.8999999999999 177.5Q364.29999999999995 173.0 370.82499999999993 170.3Q377.3499999999999 167.60000000000002 383.3499999999999 167.60000000000002Q395.49999999999994 167.60000000000002 401.7249999999999 174.57500000000002Q407.94999999999993 181.55 407.94999999999993 198.8V220.85Q407.94999999999993 222.95 407.79999999999995 226.77499999999998Q407.6499999999999 230.6 407.3499999999999 234.05Q409.74999999999994 233.75 412.67499999999995 233.675Q415.5999999999999 233.6 417.0999999999999 233.6V245.0H379.1499999999999V235.25Q382.5999999999999 235.25 384.17499999999995 233.6Q385.74999999999994 231.95 386.19999999999993 228.875Q386.6499999999999 225.8 386.6499999999999 221.9V198.95Q386.49999999999994 189.2 383.42499999999995 185.45Q380.3499999999999 181.7 375.24999999999994 181.55Q371.3499999999999 181.4 367.9749999999999 182.9Q364.5999999999999 184.4 361.8999999999999 186.5Q362.6499999999999 189.5 362.94999999999993 193.1Q363.24999999999994 196.7 363.24999999999994 200.75Q363.24999999999994 205.85 363.24999999999994 210.8Q363.24999999999994 215.75 363.24999999999994 220.85Q363.24999999999994 222.95 363.0999999999999 226.77499999999998Q362.94999999999993 230.6 362.6499999999999 234.05Q365.04999999999995 233.75 367.9 233.675Q370.74999999999994 233.6 372.3999999999999 233.6V245.0H333.69999999999993V235.25Q337.5999999999999 235.25 339.32499999999993 233.6Q341.04999999999995 231.95 341.49999999999994 228.875Q341.94999999999993 225.8 341.94999999999993 221.9L341.79999999999995 198.5Q341.79999999999995 188.75 338.94999999999993 185.15Q336.0999999999999 181.55 330.99999999999994 181.4Q327.24999999999994 181.4 324.025 183.05Q320.79999999999995 184.7 318.24999999999994 186.95Q318.24999999999994 188.9 318.24999999999994 190.7Q318.24999999999994 192.5 318.24999999999994 194.45V220.85Q318.24999999999994 222.95 318.0999999999999 226.77499999999998Q317.94999999999993 230.6 317.6499999999999 234.05Q320.04999999999995 233.75 322.5999999999999 233.675Q325.1499999999999 233.6 326.6499999999999 233.6V245.0ZM424.5999999999999 283.25V273.5Q428.79999999999995 273.5 430.67499999999995 271.85Q432.54999999999995 270.2 433.07499999999993 267.125Q433.5999999999999 264.05 433.5999999999999 260.15V196.7Q433.5999999999999 194.0 433.7499999999999 190.625Q433.8999999999999 187.25 434.19999999999993 183.95Q431.79999999999995 184.1 428.49999999999994 184.175Q425.19999999999993 184.25 423.54999999999995 184.4V173.0Q430.5999999999999 173.0 435.32499999999993 172.25Q440.04999999999995 171.5 442.82499999999993 170.45Q445.5999999999999 169.4 446.6499999999999 168.5H453.99999999999994Q454.29999999999995 170.0 454.44999999999993 172.175Q454.5999999999999 174.35000000000002 454.74999999999994 175.7Q459.99999999999994 171.2 465.17499999999995 169.4Q470.3499999999999 167.60000000000002 474.99999999999994 167.60000000000002Q483.99999999999994 167.60000000000002 490.82499999999993 172.25Q497.6499999999999 176.9 501.4749999999999 185.45Q505.29999999999995 194.0 505.29999999999995 205.55Q505.29999999999995 217.55 500.65 227.075Q495.99999999999994 236.6 487.67499999999995 242.0Q479.3499999999999 247.4 468.0999999999999 247.4Q464.04999999999995 247.4 460.82499999999993 246.575Q457.5999999999999 245.75 454.74999999999994 244.7V259.1Q454.74999999999994 261.2 454.67499999999995 265.025Q454.5999999999999 268.85 454.29999999999995 272.3Q456.69999999999993 272.0 459.54999999999995 271.925Q462.3999999999999 271.85 463.8999999999999 271.85V283.25ZM465.69999999999993 236.15Q472.5999999999999 236.0 476.42499999999995 232.025Q480.24999999999994 228.05 481.74999999999994 221.60000000000002Q483.24999999999994 215.15 483.24999999999994 207.8Q483.24999999999994 200.9 481.5999999999999 194.75Q479.94999999999993 188.6 476.3499999999999 184.77499999999998Q472.74999999999994 180.95 466.8999999999999 181.1Q463.1499999999999 181.25 459.9999999999999 182.975Q456.8499999999999 184.7 454.74999999999994 187.7Q454.74999999999994 192.35 454.74999999999994 196.925Q454.74999999999994 201.5 454.74999999999994 206.0Q454.74999999999994 210.5 454.74999999999994 215.075Q454.74999999999994 219.65 454.74999999999994 224.22500000000002Q454.74999999999994 228.8 454.74999999999994 233.45Q456.3999999999999 234.5 459.3999999999999 235.4Q462.3999999999999 236.3 465.69999999999993 236.15ZM524.8 165.65Q524.8 147.5 532.75 139.625Q540.6999999999999 131.75 554.1999999999999 131.75Q561.2499999999999 131.75 565.4499999999998 133.775Q569.6499999999999 135.8 571.4499999999998 138.8Q573.2499999999999 141.8 573.2499999999999 144.95Q573.2499999999999 148.85000000000002 570.8499999999999 151.85000000000002Q568.4499999999999 154.85000000000002 563.9499999999999 155.0Q559.5999999999999 155.15 557.1999999999999 152.675Q554.8 150.2 554.8 146.45Q554.8 145.7 554.875 144.95Q554.9499999999999 144.2 555.0999999999999 143.45Q554.3499999999999 142.7 553.3749999999999 142.475Q552.3999999999999 142.25 551.6499999999999 142.25Q549.2499999999999 142.25 547.8999999999999 143.675Q546.55 145.10000000000002 546.0999999999999 147.20000000000002Q545.6499999999999 149.3 545.6499999999999 151.55V170.0H562.4499999999999V181.55L545.8 182.0L545.9499999999999 220.55Q545.9499999999999 222.65 545.8 226.625Q545.6499999999999 230.6 545.3499999999999 234.05Q547.8999999999999 233.75 551.1249999999999 233.675Q554.3499999999999 233.6 555.8499999999999 233.6V245.0H515.8V235.25Q519.9999999999999 235.25 521.8749999999999 233.6Q523.7499999999999 231.95 524.2749999999999 228.875Q524.8 225.8 524.8 221.9V182.3L513.8499999999999 182.45V170.0H524.8ZM579.4999999999999 235.25Q583.6999999999999 235.25 585.5 233.6Q587.3 231.95 587.8249999999999 228.875Q588.3499999999999 225.8 588.3499999999999 221.9V197.0Q588.3499999999999 194.3 588.4999999999999 190.775Q588.6499999999999 187.25 588.9499999999999 183.95Q586.55 184.1 583.3249999999999 184.175Q580.0999999999999 184.25 578.4499999999999 184.4V173.0Q585.3499999999999 173.0 590.1499999999999 172.25Q594.9499999999999 171.5 597.7249999999999 170.45Q600.4999999999999 169.4 601.55 168.5H609.6499999999999V220.85Q609.6499999999999 222.95 609.4999999999999 226.77499999999998Q609.3499999999999 230.6 609.05 234.05Q611.4499999999999 233.75 614.375 233.675Q617.3 233.6 618.8 233.6V245.0H579.4999999999999ZM628.5499999999998 235.25Q632.7499999999999 235.25 634.55 233.6Q636.3499999999999 231.95 636.8749999999999 228.875Q637.3999999999999 225.8 637.3999999999999 221.9V196.7Q637.3999999999999 194.0 637.5499999999998 190.625Q637.6999999999998 187.25 637.9999999999999 183.95Q635.5999999999999 184.1 632.3749999999999 184.175Q629.1499999999999 184.25 627.4999999999999 184.4V173.0H633.4999999999999Q639.3499999999999 173.0 644.2249999999999 171.5Q649.0999999999999 170.0 650.5999999999999 168.5H657.9499999999998Q658.2499999999999 170.0 658.3999999999999 174.125Q658.5499999999998 178.25 658.5499999999998 181.4Q662.5999999999999 176.45 666.1999999999998 173.45Q669.7999999999998 170.45 673.3249999999998 169.025Q676.8499999999999 167.60000000000002 680.4499999999998 167.60000000000002Q685.6999999999998 167.60000000000002 689.5999999999999 170.525Q693.4999999999999 173.45 693.4999999999999 180.05Q693.4999999999999 182.3 692.4499999999998 184.775Q691.3999999999999 187.25 689.1499999999999 188.9Q686.8999999999999 190.55 682.9999999999999 190.55Q679.9999999999999 190.55 676.8499999999999 188.75Q673.6999999999998 186.95 673.2499999999999 181.85Q670.2499999999999 181.85 667.2499999999999 184.325Q664.2499999999999 186.8 661.925 190.175Q659.5999999999999 193.55 658.6999999999998 196.4V220.85Q658.6999999999998 222.95 658.5499999999998 226.77499999999998Q658.3999999999999 230.6 658.0999999999999 234.05Q660.4999999999999 233.75 663.425 233.675Q666.3499999999999 233.6 667.8499999999999 233.6V245.0H628.5499999999998ZM735.0500000000001 247.4Q724.1 247.4 715.7 242.525Q707.3000000000001 237.65 702.6500000000001 228.72500000000002Q698.0 219.8 698.0 207.65Q698.0 197.15 702.6500000000001 188.0Q707.3000000000001 178.85000000000002 715.7750000000001 173.22500000000002Q724.25 167.60000000000002 735.5 167.60000000000002Q741.8000000000001 167.60000000000002 747.8000000000001 169.32500000000002Q753.8000000000001 171.05 758.6750000000001 175.25Q763.5500000000001 179.45 766.475 186.64999999999998Q769.4 193.85 769.25 204.65L720.0500000000001 205.55Q720.0500000000001 213.65 722.075 220.10000000000002Q724.1 226.55 728.75 230.3Q733.4 234.05 741.2 234.05Q744.2 234.05 748.0250000000001 233.0Q751.85 231.95 755.825 229.475Q759.8000000000001 227.0 763.25 222.8L770.0 229.1Q764.6 236.75 758.45 240.725Q752.3000000000001 244.7 746.225 246.05Q740.15 247.4 735.0500000000001 247.4ZM720.95 195.05H748.5500000000001Q748.4 188.75 746.825 185.075Q745.25 181.4 742.55 179.75Q739.85 178.10000000000002 736.25 178.10000000000002Q729.65 178.10000000000002 725.9 182.82500000000002Q722.15 187.55 720.95 195.05Z"/><path transform="translate(583.56 96.50) scale(0.3552 0.3964)" fill="#E4572E" d="M50 0 C55 20 70 32 81 48 C94 66 99 86 94 106 C88 128 70 140 50 140 C30 140 11 128 6 106 C2 88 7 72 18 58 C21 72 27 82 36 87 C31 62 37 34 50 0 Z"/><path transform="translate(583.56 96.50) scale(0.3552 0.3964)" fill="#F3A33A" d="M53 62 C58 80 73 90 73 108 C73 124 63 134 50 134 C37 134 27 125 27 111 C27 99 34 93 39 86 C41 95 45 100 51 101 C48 88 48 76 53 62 Z"/></svg>